<?xml version="1.0" encoding="utf-8"?>
<!-- Generator: Adobe Illustrator 19.1.0, SVG Export Plug-In . SVG Version: 6.00 Build 0)  -->
<svg version="1.1" id="Layer_1" xmlns="http://www.w3.org/2000/svg" xmlns:xlink="http://www.w3.org/1999/xlink" x="0px" y="0px"
	 viewBox="0 0 612 792" style="enable-background:new 0 0 612 792;" xml:space="preserve">
<style type="text/css">
	.st0{fill:#D34646;stroke:#000000;stroke-miterlimit:10;}
	.st1{fill:#FFFFFF;}
	.st2{fill:#F6F5F5;}
	.st3{font-family:'MyriadPro-Regular';}
	.st4{font-size:25px;}
	.st5{fill:none;}
	.st6{fill:#F8DA14;}
	.st7{font-family:'EdwardianScriptITC';}
	.st8{font-size:22px;}
</style>
<rect x="839" y="355" class="st0" width="100" height="100"/>
<g>
	<g>
		<g>
			<g>
				<path class="st1" d="M257.5,312.8l-15.4,3.5l0.6,2.4L259,315C258.4,314.3,257.9,313.5,257.5,312.8z"/>
			</g>
		</g>
		<g>
			<g>
				<path class="st1" d="M256,228l-31.8,7.3c0,0,0,0,0,0c-3.2,0.9-5.5,2.6-6.9,5.1c-2.3,4-1,8.7-0.8,9.5l16.1,69.7
					c1.2,5.3,6.6,8.7,12,7.4l31.3-7.2l-6.1,0c-2.2,0-4.3-0.5-6.1-1.4l-20,4.6c-3.2,0.7-6.3-1.2-7.1-4.4c-0.7-3.1,1.2-6.3,4.4-7
					l14.4-3.3L256,228z M234.8,310.9L220.5,249l0-0.2c0,0-1.1-3.6,0.4-6.3c0.2-0.4,0.5-0.7,0.8-1l15.6,67.5
					C236.3,309.5,235.4,310.1,234.8,310.9z"/>
			</g>
			<g>
				<path class="st1" d="M282,303.9l-12-0.1l0,2.5l12,0.1C281.9,305.5,281.9,304.7,282,303.9z"/>
			</g>
		</g>
		<g>
			<g>
				<path class="st1" d="M297,221.1l-25.8-0.2c0,0,0,0,0,0c-3.3,0.1-6,1.3-7.9,3.4c-3.1,3.4-3,8.3-2.9,9.1l-0.5,71.5
					c0,5.5,4.4,10,9.9,10l14.5,0.1c-0.9-1.3-1.7-2.6-2.2-4.1l-12.3-0.1c-3.3,0-5.9-2.7-5.9-5.9c0-3.2,2.7-5.8,5.9-5.8l12.2,0.1
					L297,221.1z M264.5,233.1c0,0-0.3-3.8,1.9-6.1c0.3-0.3,0.6-0.6,1-0.8l-0.5,69.2c-1,0.3-2,0.8-2.8,1.4l0.5-63.6L264.5,233.1z"/>
			</g>
			<g>
				<g>
					<g>
						<path class="st1" d="M298,299.5l60.2,10.7l14.5-81.5l-59.3-10.5c0,0,0,0,0,0c-3.5-0.5-6.5,0.3-8.8,2.1c-3.9,3-4.6,8.1-4.7,9
							l-13.2,74.5c-1,5.7,2.8,11.2,8.6,12.2l60.1,10.7l0.8-4.3l-60.1-10.7c-3.4-0.6-5.7-3.8-5.1-7.2
							C291.5,301.1,294.7,298.9,298,299.5z M304.1,229.7c0,0,0.4-4,3-6c0.4-0.3,0.8-0.5,1.2-0.7l-12.8,72.1c-1.1,0.2-2.2,0.5-3.2,1
							l11.8-66.2L304.1,229.7z"/>
					</g>
				</g>
				<g>
					
						<rect x="296.6" y="309.2" transform="matrix(0.9846 0.1748 -0.1748 0.9846 59.2704 -51.9005)" class="st1" width="55.3" height="2.6"/>
				</g>
			</g>
		</g>
	</g>
</g>
<text transform="matrix(1 0 0 1 184.5556 366.111)" class="st2 st3 st4">Library Manager V.0.1</text>
<rect x="338.5" y="380" class="st5" width="80.8" height="20"/>
<text transform="matrix(1 0 0 1 338.5332 390.9325)" class="st6 st7 st8">By Moji</text>
</svg>
